PathFileType	4	(X/Y/Z)	/Users/itak/Documents/Research/Walk-IL/dataset/trc/00170_00008.trc
DataRate	CameraRate	NumFrames	NumMarkers	Units	OrigDataRate	OrigDataStartFrame	OrigNumFrames
100.000000	100.000000	4	53	mm	100.000000	216	577
Frame#	Time	RPSI			LPSI			L3			STRN			T10			C7			CLAV			RBAK			LBAK			LSHO			LUPA			LAEL			LAOL			LWTS			LWPS			LFRA			LIFD			LHPS			LHTS			RSHO			RUPA			RAEL			RAOL			RWTS			RWPS			RFRA			RIFD			RHTS			RHPS			RBHD			LFHD			RFHD			LBHD			LHIP			RHIP			RASI			LASI			LKNE			LTHI			LANK			LTIP			LTOE			LMT1			LMT5			LHEE			RKNE			RTHI			RANK			RTIP			RTOE			RMT1			RMT5			RHEE			
		X1	Y1	Z1	X2	Y2	Z2	X3	Y3	Z3	X4	Y4	Z4	X5	Y5	Z5	X6	Y6	Z6	X7	Y7	Z7	X8	Y8	Z8	X9	Y9	Z9	X10	Y10	Z10	X11	Y11	Z11	X12	Y12	Z12	X13	Y13	Z13	X14	Y14	Z14	X15	Y15	Z15	X16	Y16	Z16	X17	Y17	Z17	X18	Y18	Z18	X19	Y19	Z19	X20	Y20	Z20	X21	Y21	Z21	X22	Y22	Z22	X23	Y23	Z23	X24	Y24	Z24	X25	Y25	Z25	X26	Y26	Z26	X27	Y27	Z27	X28	Y28	Z28	X29	Y29	Z29	X30	Y30	Z30	X31	Y31	Z31	X32	Y32	Z32	X33	Y33	Z33	X34	Y34	Z34	X35	Y35	Z35	X36	Y36	Z36	X37	Y37	Z37	X38	Y38	Z38	X39	Y39	Z39	X40	Y40	Z40	X41	Y41	Z41	X42	Y42	Z42	X43	Y43	Z43	X44	Y44	Z44	X45	Y45	Z45	X46	Y46	Z46	X47	Y47	Z47	X48	Y48	Z48	X49	Y49	Z49	X50	Y50	Z50	X51	Y51	Z51	X52	Y52	Z52	X53	Y53	Z53	

217	2.16	468.0097961425781	1062.69384765625	233.23828125	467.6065063476562	1065.983764648438	110.7758865356445	475.201904296875	1103.035888671875	173.2204895019531	766.87548828125	1268.762573242188	151.2971954345703	469.4454956054688	1272.226440429688	160.3127746582031	581.1964111328125	1525.489501953125	137.3726959228516	757.5125122070312	1385.552734375	139.0621643066406	486.8185729980469	1367.802734375	255.1078643798828	566.7066040039062	1499.2041015625	37.8415641784668	637.0611572265625	1471.18896484375	-42.2789421081543	581.3656616210938	1344.238037109375	-110.4286804199219	566.4507446289062	1126.684814453125	-127.3533020019531	526.6173706054688	1114.097045898438	-50.12189102172852	683.9568481445312	898.712646484375	-103.6706771850586	599.6278076171875	873.1664428710938	-134.9249572753906	578.4847412109375	1014.6875	-140.3687896728516	711.2944946289062	717.650634765625	-79.36319732666016	624.8507080078125	804.4013671875	-132.3055725097656	696.3841552734375	821.0964965820312	-124.3491516113281	646.582275390625	1494.53369140625	318.4144897460938	618.3907470703125	1433.025512695312	389.4227905273438	565.6712646484375	1147.996948242188	451.8186950683594	562.2288818359375	1138.37109375	355.4447631835938	716.031005859375	928.7698974609375	431.9197387695312	643.0887451171875	904.4435424804688	475.7836608886719	591.536865234375	1073.761962890625	469.8592834472656	746.66845703125	747.549072265625	398.2154235839844	750.671142578125	838.3096923828125	438.5282287597656	678.212890625	824.0580444335938	470.4526977539062	735.39599609375	1670.830932617188	202.8567047119141	895.6114501953125	1616.197631835938	65.65204620361328	900.73779296875	1617.3515625	195.2163238525391	726.6845092773438	1680.036987304688	66.13529968261719	559.639892578125	988.9968872070312	-10.74255275726318	622.4413452148438	1010.246704101562	356.1340942382812	700.293212890625	1028.512939453125	295.8382873535156	687.5961303710938	1014.754333496094	36.0329475402832	594.8785400390625	486.1067199707031	33.80353164672852	592.5778198242188	629.1126098632812	5.466810703277588	439.292236328125	42.77700042724609	55.62510681152344	524.167724609375	263.7335510253906	34.34542465209961	659.4837646484375	39.75913619995117	51.50861358642578	617.2152099609375	39.85595321655273	106.6370086669922	540.9030151367188	33.16632843017578	2.230798721313477	397.2164916992188	45.10921859741211	130.6204376220703	794.7147216796875	543.1548461914062	341.7326049804688	722.5823364257812	800.760498046875	370.5241394042969	762.8926391601562	49.85791778564453	376.5110168457031	824.6158447265625	422.1785888671875	332.0856628417969	979.6637573242188	72.61875152587891	332.1351928710938	923.8226318359375	59.6408576965332	291.4998474121094	876.3613891601562	55.22572326660156	405.492919921875	708.18310546875	44.49903106689453	311.6832580566406	
218	2.17	462.7817077636719	1063.410888671875	232.3902587890625	462.2392272949219	1066.593139648438	109.8265609741211	469.6907958984375	1103.794677734375	172.0501708984375	761.0869750976562	1269.936767578125	150.5783386230469	463.6451110839844	1272.933715820312	158.9686889648438	575.0396118164062	1526.309814453125	135.9102783203125	751.6273803710938	1386.714111328125	138.1094207763672	480.7624206542969	1368.706420898438	253.67626953125	560.7163696289062	1499.8193359375	36.38234710693359	631.303466796875	1471.857299804688	-43.56363677978516	576.032470703125	1344.735473632812	-111.7471542358398	561.8577270507812	1127.2021484375	-128.8588714599609	521.8595581054688	1114.379272460938	-51.73309326171875	680.2313232421875	899.7197265625	-105.1077117919922	596.021484375	873.8114624023438	-136.4353942871094	574.3417358398438	1015.256530761719	-141.91845703125	708.4696044921875	718.813720703125	-81.17396545410156	621.6015014648438	805.1937255859375	-133.9444427490234	693.0427856445312	822.2557373046875	-125.9538879394531	640.2379150390625	1495.738037109375	317.116943359375	612.0130004882812	1434.271484375	388.1951599121094	559.3907470703125	1149.235595703125	450.5164489746094	555.8671875	1139.664916992188	354.1420593261719	708.592529296875	929.2759399414062	430.6851501464844	635.6777954101562	905.4168090820312	474.8636169433594	584.9229736328125	1074.977783203125	468.6006164550781	738.0310668945312	747.8067626953125	397.0113525390625	742.7722778320312	838.6311645507812	437.2263793945312	670.377685546875	824.8019409179688	469.4842834472656	728.7998657226562	1672.180053710938	201.0302429199219	888.624755859375	1617.963989257812	63.29394912719727	894.3491821289062	1619.551025390625	192.7759552001953	719.4146728515625	1680.970703125	64.29482269287109	554.5018920898438	989.58349609375	-11.35828685760498	616.5975952148438	1011.634887695312	355.5853881835938	694.510498046875	1029.913940429688	295.3031311035156	682.3966674804688	1015.666625976562	35.5428581237793	592.45947265625	486.7739868164062	33.88536071777344	589.3772583007812	629.7551879882812	5.359829425811768	439.3901672363281	42.91568756103516	55.70901870727539	523.1094360351562	263.9780578613281	34.47486877441406	659.56591796875	39.78279495239258	51.52092742919922	617.25439453125	39.74185180664062	106.7533721923828	540.9471435546875	33.29693222045898	2.463253259658813	397.2831726074219	45.0937614440918	130.6819915771484	789.9591674804688	544.0894775390625	341.3955078125	717.3777465820312	801.8977661132812	370.1707153320312	746.6005859375	51.09407806396484	375.6943664550781	817.356201171875	422.2064819335938	332.5109558105469	964.099853515625	73.38782501220703	334.7985229492188	908.6732788085938	59.84576797485352	293.3190612792969	859.5458374023438	55.70085144042969	406.4110412597656	692.8068237304688	46.24744415283203	310.1004333496094	
219	2.18	457.7278442382812	1064.199462890625	231.7178039550781	456.9591369628906	1067.240234375	109.0467987060547	464.324951171875	1104.608764648438	171.0630645751953	755.3460083007812	1271.306518554688	149.9417419433594	457.924072265625	1273.634887695312	157.7910461425781	568.8102416992188	1527.17919921875	134.6162414550781	745.7308959960938	1388.076293945312	137.2615203857422	474.7582397460938	1369.619750976562	252.4059143066406	554.6447143554688	1500.544555664062	35.09477996826172	625.4476318359375	1472.701416015625	-44.68141937255859	570.629150390625	1345.42431640625	-112.9370269775391	557.1828002929688	1127.90673828125	-130.1494750976562	517.0899658203125	1114.875732421875	-53.08871078491211	676.3397216796875	900.8494262695312	-106.522705078125	592.1721801757812	874.6209716796875	-137.7754974365234	570.0588989257812	1016.017395019531	-143.2783508300781	705.40966796875	720.0759887695312	-82.98482513427734	618.075927734375	806.1383666992188	-135.4391784667969	689.4529418945312	823.51904296875	-127.5516815185547	633.8382568359375	1497.05810546875	315.9435729980469	605.6246948242188	1435.632568359375	387.0881042480469	553.25048828125	1150.597778320312	449.3233642578125	549.6693725585938	1141.075805664062	352.9388122558594	701.2413940429688	929.8517456054688	429.6324157714844	628.3486328125	906.5145874023438	474.1366271972656	578.4323120117188	1076.327392578125	467.4747009277344	729.356201171875	748.083251953125	396.08203125	734.906982421875	838.9939575195312	436.1572265625	662.582275390625	825.6603393554688	468.7548828125	722.15966796875	1673.626831054688	199.4051818847656	881.548583984375	1619.833618164062	61.09769439697266	887.8946533203125	1621.831420898438	190.4873962402344	712.0704956054688	1682.025756835938	62.6627197265625	549.3573608398438	990.252685546875	-11.84268379211426	610.972412109375	1013.093322753906	355.1253967285156	688.9037475585938	1031.427368164062	294.8109741210938	677.278076171875	1016.698913574219	35.10451889038086	590.1455078125	487.4803771972656	33.88506317138672	586.3739624023438	630.416748046875	5.235250949859619	439.4918823242188	43.03744888305664	55.73847198486328	522.0866088867188	264.2793579101562	34.51610946655273	659.658447265625	39.80581665039062	51.52819061279297	617.3133544921875	39.681884765625	106.8109664916992	541.0003051757812	33.37841033935547	2.624456405639648	397.3522644042969	45.15201568603516	130.6586151123047	785.1754760742188	544.9627075195312	341.1363830566406	712.2590942382812	803.14794921875	369.4716186523438	728.9385375976562	52.75930404663086	374.7692260742188	809.8079223632812	422.1901550292969	332.9433898925781	947.18798828125	73.52305603027344	337.5672607421875	892.2297973632812	59.6855583190918	295.1709594726562	841.2808227539062	56.07817459106445	407.3270568847656	676.1370239257812	48.66817474365234	308.3347778320312	
220	2.19	452.7792053222656	1065.033325195312	231.1931762695312	451.7637939453125	1067.89990234375	108.4222946166992	459.0956420898438	1105.442749023438	170.2603454589844	749.6591796875	1272.83837890625	149.3735656738281	452.2850646972656	1274.298950195312	156.7840270996094	562.5116577148438	1528.066162109375	133.4860687255859	739.8242797851562	1389.601684570312	136.5074768066406	468.7977294921875	1370.503173828125	251.2917785644531	548.4935913085938	1501.344360351562	33.97762298583984	619.4887084960938	1473.687377929688	-45.63897705078125	565.15234375	1346.274291992188	-114.0086975097656	552.42333984375	1128.764526367188	-131.2446746826172	512.288330078125	1115.550537109375	-54.21712875366211	672.2881469726562	902.072998046875	-107.9046249389648	588.1012573242188	875.5638427734375	-138.9519805908203	565.6409301757812	1016.9345703125	-144.4617767333984	702.1165161132812	721.4103393554688	-84.74530029296875	614.2938232421875	807.2002563476562	-136.7770233154297	685.6287841796875	824.852294921875	-129.1150817871094	627.398193359375	1498.459716796875	314.8887939453125	599.2350463867188	1437.079345703125	386.0942077636719	547.2146606445312	1152.053588867188	448.2359008789062	543.6251220703125	1142.567993164062	351.8289489746094	693.9925537109375	930.4959106445312	428.7937622070312	621.1029052734375	907.715087890625	473.5928649902344	572.0424194335938	1077.78173828125	466.4827575683594	720.7166748046875	748.395263671875	395.4354858398438	727.099853515625	839.4004516601562	435.3543090820312	654.8365478515625	826.6154174804688	468.2535400390625	715.4454345703125	1675.141967773438	197.9772796630859	874.3843994140625	1621.815185546875	59.06432723999023	881.3551635742188	1624.192016601562	188.3592071533203	704.6343994140625	1683.176513671875	61.23756408691406	544.212646484375	990.9656372070312	-12.21750545501709	605.54541015625	1014.558288574219	354.7542114257812	683.4645385742188	1032.99072265625	294.3735656738281	672.2374267578125	1017.801208496094	34.72373580932617	587.8850708007812	488.201416015625	33.83324432373047	583.6859130859375	631.0216674804688	5.176688671112061	439.5934143066406	43.14201354980469	55.73533248901367	521.0850219726562	264.6106872558594	34.50870132446289	659.7630004882812	39.83112335205078	51.52869033813477	617.3958129882812	39.66503143310547	106.8230819702148	541.0761108398438	33.43472671508789	2.725754737854004	397.4209899902344	45.24607086181641	130.5826416015625	780.3971557617188	545.7500610351562	340.9234924316406	707.2764892578125	804.51416015625	368.4322204589844	710.0621948242188	54.94300842285156	373.8389282226562	802.015869140625	422.1201477050781	333.3029479980469	929.00732421875	73.15908050537109	340.2667236328125	874.5381469726562	59.30773162841797	296.9620971679688	821.7570190429688	56.53458404541016	408.209228515625	658.2606201171875	51.76026916503906	306.544189453125	
